<svg width="44" height="28" viewBox="0 0 44 28" fill="none" xmlns="http://www.w3.org/2000/svg"><path d="M18.097 12.649c.911-.464 1.607-.989 2.08-1.549.842-1.014 1.254-2.353 1.254-4.023 0-1.619-.412-3.01-1.246-4.164C18.802 1.023 16.456.053 13.14 0H0v27.3h12.254c1.383 0 2.655-.122 3.841-.367 1.186-.245 2.209-.709 3.068-1.373a7.486 7.486 0 001.925-2.143c.807-1.286 1.211-2.738 1.211-4.357 0-1.565-.352-2.904-1.057-3.997-.713-1.102-1.753-1.907-3.145-2.414zM5.422 4.74h5.921c1.298 0 2.372.14 3.214.429.97.41 1.46 1.25 1.46 2.528 0 1.146-.369 1.941-1.108 2.396-.739.455-1.701.674-2.879.674H5.423V4.74zm9.358 17.337c-.653.324-1.572.481-2.758.481h-6.6V15.28h6.694c1.17.01 2.071.167 2.724.455 1.152.534 1.728 1.505 1.728 2.93 0 1.689-.593 2.817-1.788 3.412zM39.77 1.268H28.116v3.394h11.652V1.268zm4.047 13.419c-.24-1.584-.774-2.974-1.607-4.173-.911-1.364-2.063-2.353-3.472-2.983-1.4-.63-2.973-.944-4.726-.944-2.948 0-5.337.936-7.184 2.799-1.848 1.863-2.767 4.548-2.767 8.047 0 3.735 1.023 6.43 3.068 8.083 2.045 1.653 4.4 2.484 7.08 2.484 3.24 0 5.766-.98 7.563-2.94 1.151-1.232 1.804-2.457 1.95-3.647h-5.37c-.31.595-.67 1.05-1.083 1.391-.748.612-1.719.927-2.913.927-1.135 0-2.097-.253-2.905-.76-1.323-.814-2.02-2.231-2.105-4.26h14.651c.017-1.768-.043-3.106-.18-4.024zm-14.342.516c.189-1.312.661-2.353 1.4-3.123.74-.77 1.796-1.155 3.137-1.155 1.237 0 2.277.359 3.12 1.085.833.735 1.305 1.793 1.4 3.193h-9.057z" fill="#181818"/></svg>