<svg width="332" height="351" viewBox="0 0 332 351" fill="none" xmlns="http://www.w3.org/2000/svg"><g clip-path="url(#clip0)"><path d="M284.272 107.695H50.557v1.157h233.715v-1.157z" fill="#CCC"/><path d="M167.806.7h-1.153v107.572h1.153V.699z" fill="#CCC"/><path d="M265.649 53.908H68.81v1.156h196.84v-1.156z" fill="#CCC"/><path d="M204.452 191.136a24.307 24.307 0 01-5.992 15.994c-.346.399-.71.78-1.079 1.156h-34.315a24.219 24.219 0 01-6.033-10.09s.006 0 0-.006a24.352 24.352 0 01-1.038-7.054 24.313 24.313 0 018.158-18.175 24.196 24.196 0 0116.04-6.113 24.189 24.189 0 0116.055 6.071 24.313 24.313 0 018.204 18.217z" fill="#181818"/><path d="M149.685 208.286h-2.964l2.301-1.156.069-.035.018.035.576 1.156zm20.203 0h-2.964l.577-1.156.017-.035.069.035 2.301 1.156z" fill="#2F2E41"/><path d="M178.527 193.497c4.573 0 8.281-3.717 8.281-8.303 0-4.585-3.708-8.302-8.281-8.302-4.574 0-8.282 3.717-8.282 8.302 0 4.586 3.708 8.303 8.282 8.303z" fill="#fff"/><path d="M177.657 188.807a2.771 2.771 0 00-.013-3.912 2.755 2.755 0 00-3.902-.013 2.771 2.771 0 00.014 3.911 2.753 2.753 0 003.901.014z" fill="#181818"/><path d="M199.337 164.708c.364-8.993-7.367-16.611-17.268-17.014-9.901-.403-18.223 6.561-18.587 15.554-.365 8.994 6.518 11.037 16.419 11.441 9.901.403 19.071-.987 19.436-9.981z" fill="#EA5243"/><path d="M186.878 200.71a5.549 5.549 0 01-2.44 5.643 5.507 5.507 0 01-7.631-1.652 5.538 5.538 0 01-.792-2.008l-.002-.011c-.543-3.008 1.776-4.072 4.777-4.617 3-.544 5.545-.363 6.088 2.645z" fill="#fff"/><path d="M306.222 207.129H22.47a10.367 10.367 0 00-7.34 3.048 10.423 10.423 0 00-3.042 7.36c0 2.76 1.094 5.408 3.041 7.36a10.367 10.367 0 007.34 3.048h283.753c2.753 0 5.394-1.096 7.341-3.048a10.422 10.422 0 003.04-7.36c0-2.76-1.093-5.408-3.04-7.36a10.368 10.368 0 00-7.341-3.048z" fill="#A4A4A4"/><path d="M284.883 118.08v89.627h-1.153V118.08c0-3.105-.121-6.181-.364-9.228-.029-.388-.057-.769-.092-1.157a116.238 116.238 0 00-18.744-53.787 116.598 116.598 0 00-41.772-38.487 116.244 116.244 0 00-54.952-14.139c-.19-.005-.386-.005-.576-.005-.191 0-.387 0-.577.005-2.186.006-4.354.076-6.506.209a115.342 115.342 0 00-24.897 4.261c-4.6 1.317-9.113 2.92-13.513 4.8a117.293 117.293 0 00-52.558 44.512 116.23 116.23 0 00-17.994 52.631c-.034.388-.063.769-.092 1.157a116.417 116.417 0 00-.363 9.228v89.627h-1.154V118.08c0-3.515.152-6.991.456-10.425a117.273 117.273 0 0118.6-53.863c15.651-24.141 39.563-41.715 67.235-49.416a116.707 116.707 0 0124.811-4.07c2.168-.122 4.352-.184 6.552-.186 29.4.03 57.726 11.082 79.412 30.985 21.686 19.904 35.164 47.22 37.785 76.579.3 3.423.452 6.888.456 10.396z" fill="#3F3D56"/><path d="M134.722 290.438c32.65.559 32.645 49.251-.001 49.806-32.649-.559-32.643-49.252.001-49.806z" fill="#181818"/><path d="M130.949 334.885h-7.545v13.555h7.545v-13.555zm15.092 0h-7.546v13.555h7.546v-13.555z" fill="#181818"/><path d="M129.692 346.233c8.153-.058 8.154 4.787-.001 4.729-8.153.058-8.153-4.787.001-4.729z" fill="#181818"/><path d="M144.784 345.918c8.153-.058 8.153 4.787-.001 4.728-8.153.058-8.153-4.786.001-4.728z" fill="#181818"/><path d="M135.351 300.525c11.102.05 11.101 16.974 0 17.022-11.102-.05-11.101-16.974 0-17.022z" fill="#fff"/><path d="M135.351 306.199c3.671-.054 3.672 5.728 0 5.674-3.671.054-3.671-5.728 0-5.674z" fill="#181818"/><path d="M110.628 292.182c-4.666-21.332 31.079-29.331 35.902-8.037 2.006 9.005-4.565 12.326-14.479 14.545-9.914 2.22-19.417 2.497-21.423-6.508z" fill="#EA5243"/><path d="M145.55 223.583c5.786-15.193 13.079-12.397 7.283 2.791-5.786 15.192-13.079 12.397-7.283-2.791z" fill="#181818"/><path d="M101.716 239.795c5.78-32.223 53.718-24.418 49.035 7.979-5.78 32.222-53.719 24.417-49.035-7.979z" fill="#181818"/><path d="M122.46 263.328h-7.545v13.555h7.545v-13.555zm15.092 0h-7.546v13.555h7.546v-13.555z" fill="#181818"/><path d="M121.203 274.676c8.153-.058 8.153 4.787-.001 4.729-8.153.058-8.153-4.787.001-4.729z" fill="#181818"/><path d="M136.294 274.361c8.154-.058 8.154 4.787 0 4.728-8.153.058-8.153-4.786 0-4.728z" fill="#181818"/><path d="M102.139 220.625c-4.666-21.332 31.079-29.331 35.902-8.037 2.006 9.004-4.565 12.326-14.479 14.545-9.914 2.22-19.417 2.497-21.423-6.508z" fill="#EA5243"/><path d="M87.036 226.893c1.755-4.736 24.991 6.313 22.442 10.672-1.755 4.736-24.991-6.314-22.442-10.672zm126.268-17.253c1.593-1.372-.648-6.61-5.006-11.7-4.358-5.09-9.183-8.105-10.777-6.733-1.594 1.372.647 6.61 5.005 11.7 4.359 5.09 9.184 8.105 10.778 6.733zm-55.317-6.733c4.358-5.09 6.599-10.328 5.006-11.7-1.594-1.372-6.419 1.643-10.777 6.733-4.359 5.09-6.6 10.328-5.006 11.7 1.594 1.371 6.419-1.643 10.777-6.733zm69.734 148.204H7.986a.577.577 0 010-1.157H227.72a.575.575 0 01.576.578c0 .154-.06.301-.169.409a.572.572 0 01-.407.17z" fill="#181818"/></g><defs><clipPath id="clip0"><path fill="#fff" d="M0 0h332v351H0z"/></clipPath></defs></svg>