<svg width="71" height="72" viewBox="0 0 71 72" fill="none" xmlns="http://www.w3.org/2000/svg"><path d="M35.15 71.02c19.274 0 34.899-1.19 34.899-2.656 0-1.467-15.625-2.657-34.898-2.657-19.274 0-34.899 1.19-34.899 2.657 0 1.466 15.625 2.655 34.899 2.655z" fill="#CCC"/><path d="M55.587 35.414c-5.422-2.24-9.248-5.435-8.545-7.138.703-1.702 5.669-1.266 11.091.973 5.423 2.24 9.249 5.436 8.546 7.138-.703 1.702-5.67 1.267-11.092-.973zM3.514 50.077c-1.412-1.182.496-5.788 4.262-10.286 3.767-4.498 7.965-7.186 9.377-6.004 1.412 1.182-.496 5.787-4.263 10.286-3.766 4.498-7.964 7.186-9.376 6.004z" fill="#000"/><path d="M32.93 59.489c-11.733 0-21.245-9.512-21.245-21.246 0-11.734 9.512-21.246 21.246-21.246 11.733 0 21.245 9.512 21.245 21.246 0 11.734-9.512 21.246-21.245 21.246z" fill="#000"/><path d="M23.938 54.916h6.454v11.565h-6.454V54.917zm12.909 0H43.3v11.565h-6.454V54.917z" fill="#000"/><path d="M29.317 68.633c-2.971 0-5.38-.903-5.38-2.017 0-1.114 2.409-2.017 5.38-2.017 2.97 0 5.378.903 5.378 2.017 0 1.114-2.408 2.017-5.378 2.017zm12.909-.269c-2.97 0-5.379-.903-5.379-2.017 0-1.114 2.408-2.017 5.379-2.017 2.97 0 5.378.903 5.378 2.017 0 1.114-2.408 2.017-5.378 2.017z" fill="#000"/><path d="M39.602 11.536C37.705 3.896 29.33-.6 20.898 1.494 12.465 3.588 7.166 11.48 9.064 19.12c1.897 7.64 8.19 7.665 16.623 5.57 8.433-2.093 15.812-5.513 13.915-13.153z" fill="#EA5243"/><path d="M36.107 40.843a7.083 7.083 0 110-14.166 7.083 7.083 0 010 14.166z" fill="#fff"/><path d="M39.018 37.035a2.361 2.361 0 110-4.722 2.361 2.361 0 010 4.722z" fill="#000"/><path d="M31.663 48.517a4.722 4.722 0 009.292 1.692l.002-.01c.464-2.566-1.52-3.474-4.086-3.938-2.566-.465-4.743-.31-5.208 2.256z" fill="#fff"/></svg>