<svg width="57" height="76" viewBox="0 0 57 76" fill="none" xmlns="http://www.w3.org/2000/svg"><path d="M28.198 75.121c15.319 0 27.737-1.776 27.737-3.966 0-2.191-12.418-3.967-27.737-3.967C12.879 67.188.46 68.964.46 71.155c0 2.19 12.419 3.966 27.738 3.966z" fill="#CCC"/><path d="M29.229 52.03c10.273 0 18.6-8.327 18.6-18.6 0-10.272-8.327-18.6-18.6-18.6-10.273 0-18.6 8.328-18.6 18.6 0 10.273 8.327 18.6 18.6 18.6z" fill="#000"/><path d="M15.979 56.339l-5.14-2.348 4.614-10.806 5.14 2.348-4.614 10.806zm14.893-6.109l-5.14-2.348-4.207 9.209 5.14 2.348 4.207-9.209z" fill="#000"/><path d="M27.457 63.554c.794-.566.216-2.742-1.293-4.86-1.508-2.119-3.375-3.378-4.169-2.812-.794.565-.216 2.741 1.292 4.86 1.509 2.119 3.375 3.378 4.17 2.812zm-10.472-3.002c.794-.565.215-2.742-1.293-4.86-1.508-2.119-3.375-3.378-4.17-2.812-.794.565-.215 2.741 1.293 4.86s3.375 3.378 4.17 2.812z" fill="#000"/><path d="M31.614 35.7a6.357 6.357 0 100-12.714 6.357 6.357 0 000 12.714z" fill="#fff"/><path d="M29.32 28.605a2.119 2.119 0 100-4.238 2.119 2.119 0 000 4.238z" fill="#000"/><path d="M20.006 10.199C21.435 3.457 28.626-.73 36.068.848c7.441 1.577 12.315 8.321 10.886 15.063-1.429 6.742-6.935 6.954-14.376 5.376-7.442-1.577-14.001-4.346-12.572-11.088z" fill="#EA5243"/><path d="M56.006 34.611c.039-1.612-4.092-3.019-9.227-3.143-5.135-.124-9.329 1.082-9.368 2.694-.039 1.612 4.092 3.02 9.227 3.144 5.135.123 9.33-1.083 9.368-2.695zm-36.88-3.131c.039-1.611-4.092-3.018-9.227-3.142C4.764 28.214.569 29.42.53 31.032c-.039 1.612 4.092 3.02 9.227 3.143 5.135.124 9.329-1.082 9.368-2.694z" fill="#000"/><path d="M22.469 39.273a4.238 4.238 0 007.71 3.522c.972-2.129-.552-3.358-2.681-4.331-2.13-.973-4.057-1.32-5.03.809z" fill="#fff"/></svg>