<svg width="302" height="354" viewBox="0 0 302 354" fill="none" xmlns="http://www.w3.org/2000/svg"><g clip-path="url(#clip0)"><path d="M223.978 72.199c-22.321-3.567-47.74-5.47-74.212-5.47-24.227 0-47.568 1.591-68.457 4.592.005-.32.01-.642.024-.963a71.476 71.476 0 0121.775-49.285A71.289 71.289 0 01153.076 1.05a71.291 71.291 0 0149.72 20.633 71.484 71.484 0 0121.173 49.547c.004.326.009.647.009.969z" fill="#EA5243"/><path opacity=".1" d="M161.999 1.023a71.269 71.269 0 00-29.581 2.23 71.335 71.335 0 00-26.121 14.08 71.447 71.447 0 00-18.145 23.5 71.532 71.532 0 00-7.035 28.856c-.014.322-.02.643-.024.964a419.182 419.182 0 0119.231-2.294 71.496 71.496 0 0118.682-44.83 71.321 71.321 0 0142.993-22.506z" fill="#fff"/><path d="M255.186 77.865a287.035 287.035 0 00-31.217-6.635 451.127 451.127 0 00-52.064-5.01 542.077 542.077 0 00-39.744-.163 465.415 465.415 0 00-50.828 4.3 298.535 298.535 0 00-36.987 7.508C15.997 85.715.384 96.233.384 107.48s15.613 21.766 43.962 29.614c19.937 5.523 44.518 9.286 71.302 11.012a527.05 527.05 0 0034.118 1.084c11.673 0 23.14-.37 34.229-1.089 24.375-1.577 46.926-4.842 65.799-9.588.101-.029.197-.053.297-.077 1.274-.316 2.528-.647 3.768-.978.446-.124.886-.244 1.327-.364a.48.48 0 01.076-.024c.422-.115.838-.235 1.255-.35.833-.24 1.656-.475 2.465-.719l.106-.029a299.87 299.87 0 002.078-.633c.56-.177 1.115-.35 1.666-.527.402-.13.8-.259 1.192-.388.287-.096.57-.187.847-.283a71.24 71.24 0 001.13-.384c.158-.053.316-.105.47-.163.359-.12.708-.244 1.058-.369.378-.134.756-.273 1.13-.408.311-.11.622-.225.928-.34.259-.101.513-.196.771-.292.704-.264 1.394-.537 2.074-.806.34-.139.679-.273 1.014-.412a159.78 159.78 0 002.572-1.088c.249-.115.502-.226.747-.331l.555-.254c.134-.058.268-.12.397-.182.484-.221.963-.446 1.432-.672a74.394 74.394 0 005.041-2.646c9.792-5.614 14.958-11.842 14.958-18.314 0-11.247-15.613-21.765-43.962-29.614zm-.259 58.307c-19.961 5.528-44.609 9.292-71.464 11.003a531.918 531.918 0 01-33.697 1.055c-11.448 0-22.699-.355-33.587-1.05-26.898-1.707-51.585-5.47-71.574-11.008-27.899-7.728-43.263-17.915-43.263-28.693.001-.952.12-1.901.354-2.824 2.442-9.722 17.461-18.822 42.909-25.869a298.342 298.342 0 0136.704-7.465 466.717 466.717 0 0151.134-4.314 545.744 545.744 0 0139.17.158 450.157 450.157 0 0152.365 5.034 286.352 286.352 0 0130.949 6.587c25.443 7.047 40.458 16.142 42.904 25.86.238.926.358 1.877.359 2.833 0 10.778-15.364 20.965-43.263 28.693z" fill="#000"/><path d="M298.875 107.915c0 6.405-5.272 12.465-14.685 17.878a77.888 77.888 0 01-5.041 2.646c-.469.226-.948.451-1.432.672-.129.062-.263.124-.397.182l-.556.254c-.244.105-.497.216-.746.331a159.78 159.78 0 01-2.572 1.088c-.335.139-.675.273-1.014.412-.68.269-1.37.542-2.074.806a43.1 43.1 0 00-.771.292c-.306.115-.617.23-.928.34-.374.135-.752.274-1.13.408-.35.125-.699.249-1.058.369-.154.058-.312.11-.47.163-.373.13-.751.259-1.13.384-.277.096-.56.187-.847.282-.393.13-.79.259-1.192.389-.551.177-1.106.35-1.666.527-.685.211-1.375.422-2.078.633l-.106.029c-.809.244-1.632.479-2.466.719-.416.115-.832.235-1.254.35a.48.48 0 00-.076.024c-.441.12-.882.24-1.327.364a345.086 345.086 0 01-4.065 1.055c-18.361 4.593-40.888 7.939-65.819 9.555a529.749 529.749 0 01-34.003 1.078c-11.802 0-23.284-.378-34.291-1.097-65.709-4.291-114.612-20.63-114.612-40.133a12.03 12.03 0 01.536-3.499c.029.081.057.158.091.239 6.832 17.969 55.32 32.491 118.232 36.033 9.638.547 19.621.83 29.838.83 10.26 0 20.281-.288 29.958-.834 62.86-3.558 111.299-18.084 118.107-36.038.115-.288.216-.576.302-.863.485 1.324.736 2.722.742 4.132zm-254.601-5.16c-7.968 0-16.437-1.717-16.437-4.898 0-3.182 8.469-4.898 16.437-4.898 7.968 0 16.437 1.716 16.437 4.898 0 3.181-8.468 4.898-16.437 4.898zm0-8.837c-9.122 0-15.48 2.076-15.48 3.939s6.358 3.939 15.48 3.939c9.123 0 15.48-2.076 15.48-3.94 0-1.862-6.357-3.938-15.48-3.938z" fill="#000"/><path d="M78.268 125.288c-7.968 0-16.437-1.717-16.437-4.898 0-3.182 8.469-4.899 16.437-4.899 7.969 0 16.437 1.717 16.437 4.899 0 3.181-8.468 4.898-16.437 4.898zm0-8.838c-9.122 0-15.48 2.076-15.48 3.94 0 1.863 6.358 3.939 15.48 3.939s15.48-2.076 15.48-3.939c0-1.864-6.358-3.94-15.48-3.94zm176.673-13.695c-7.968 0-16.437-1.717-16.437-4.898 0-3.182 8.469-4.898 16.437-4.898 7.968 0 16.437 1.716 16.437 4.898 0 3.181-8.469 4.898-16.437 4.898zm0-8.837c-9.122 0-15.48 2.076-15.48 3.939s6.358 3.939 15.48 3.939 15.48-2.076 15.48-3.94c0-1.862-6.358-3.938-15.48-3.938zm-33.994 31.37c-7.968 0-16.437-1.717-16.437-4.898 0-3.182 8.469-4.899 16.437-4.899 7.968 0 16.437 1.717 16.437 4.899 0 3.181-8.469 4.898-16.437 4.898zm0-8.838c-9.122 0-15.479 2.076-15.479 3.94 0 1.863 6.357 3.939 15.479 3.939s15.48-2.076 15.48-3.939c0-1.864-6.358-3.94-15.48-3.94zm-71.339 19.385c-7.969 0-16.437-1.717-16.437-4.898 0-3.182 8.468-4.898 16.437-4.898 7.968 0 16.437 1.716 16.437 4.898 0 3.181-8.469 4.898-16.437 4.898zm0-8.838c-9.123 0-15.48 2.077-15.48 3.94s6.357 3.939 15.48 3.939c9.122 0 15.479-2.076 15.479-3.939s-6.357-3.94-15.479-3.94zm12.117 109.601c11.109 0 20.115-9.018 20.115-20.142 0-11.124-9.006-20.142-20.115-20.142-11.109 0-20.115 9.018-20.115 20.142 0 11.124 9.006 20.142 20.115 20.142z" fill="#000"/><path d="M154.076 229.689l-9.79 4.909 2.737 5.471 9.789-4.909-2.736-5.471z" fill="#000"/><path d="M148.313 239.514c.581-.882-.852-2.853-3.2-4.403-2.348-1.55-4.722-2.092-5.303-1.211-.58.882.853 2.853 3.201 4.404 2.348 1.55 4.722 2.092 5.302 1.21zm21.061-9.825l-2.736 5.471 9.79 4.909 2.736-5.471-9.79-4.909z" fill="#000"/><path d="M180.44 238.304c2.348-1.551 3.78-3.522 3.2-4.404-.581-.881-2.955-.339-5.303 1.211s-3.781 3.521-3.2 4.403c.58.882 2.955.34 5.303-1.21z" fill="#000"/><path d="M160.317 218.413c3.797 0 6.875-3.082 6.875-6.884 0-3.802-3.078-6.884-6.875-6.884s-6.875 3.082-6.875 6.884c0 3.802 3.078 6.884 6.875 6.884z" fill="#fff"/><path d="M161.989 210.21a2.296 2.296 0 00-.011-3.243 2.288 2.288 0 00-3.239-.012 2.295 2.295 0 00.012 3.243 2.287 2.287 0 003.238.012z" fill="#3F3D56"/><path d="M177.593 194.544c.303-7.456-6.116-13.772-14.335-14.107-8.22-.334-15.128 5.44-15.431 12.897-.302 7.456 5.411 9.15 13.631 9.485 8.22.334 15.833-.818 16.135-8.275z" fill="#EA5243"/><path d="M189.188 227.003c1.323-1.138-.538-5.481-4.156-9.701-3.618-4.22-7.623-6.719-8.947-5.582-1.323 1.138.538 5.481 4.156 9.701 3.618 4.22 7.624 6.719 8.947 5.582zm-45.922-5.582c3.618-4.22 5.478-8.563 4.155-9.701-1.323-1.137-5.329 1.362-8.947 5.582-3.618 4.22-5.478 8.563-4.155 9.701 1.323 1.137 5.328-1.362 8.947-5.582z" fill="#000"/><path d="M167.25 224.394a4.596 4.596 0 01-.741 3.433 4.58 4.58 0 01-8.277-1.79l-.002-.009c-.451-2.494 1.475-3.376 3.966-3.828 2.49-.451 4.603-.301 5.054 2.194z" fill="#fff"/><path d="M127.742 237.881a.957.957 0 01-.958-.959v-56.571a.96.96 0 011.635-.678c.179.18.28.424.28.678v56.571a.96.96 0 01-.957.959zm-14.364 50.818a.96.96 0 01-.957-.958v-41.23a.955.955 0 01.957-.959.956.956 0 01.958.959v41.23a.96.96 0 01-.958.958zm36.867-34.038a.96.96 0 01-.958-.959V197.13a.96.96 0 011.635-.678c.179.18.28.424.28.678v56.572a.957.957 0 01-.957.959zm-13.885 40.75a.955.955 0 01-.677-.281.955.955 0 01-.281-.677V271.44a.96.96 0 011.635-.678c.18.18.28.424.28.678v23.013a.954.954 0 01-.957.958zm19.63-117.937a.957.957 0 01-.957-.959v-23.012a.96.96 0 011.634-.678.96.96 0 01.281.678v23.012a.956.956 0 01-.958.959zm-47.878 10.068a.96.96 0 01-.958-.959v-23.012a.96.96 0 011.915 0v23.012a.96.96 0 01-.957.959zm83.309 2.397a.96.96 0 01-.958-.959v-23.012a.96.96 0 011.915 0v23.012a.959.959 0 01-.957.959zm-1.916 71.913a.957.957 0 01-.957-.959v-27.806a.957.957 0 111.915 0v27.806a.96.96 0 01-.958.959zm-19.151 24.45a.958.958 0 01-.958-.958v-41.23a.956.956 0 01.958-.959.957.957 0 01.958.959v41.23a.96.96 0 01-.958.958zm3.83-70.474a.957.957 0 01-.957-.959v-56.571a.955.955 0 01.957-.959.956.956 0 01.958.959v56.571a.96.96 0 01-.958.959z" fill="#CCC"/><path d="M291.58 336.209c1.37-1.15-.482-5.625-4.137-9.997-3.656-4.371-7.73-6.984-9.101-5.835-1.37 1.15.482 5.625 4.138 9.997 3.655 4.371 7.729 6.984 9.1 5.835z" fill="#000"/><path d="M282.591 331.237c3.601-10.818-2.237-22.511-13.041-26.117-10.804-3.606-22.482 2.241-26.083 13.059-3.601 10.818 2.238 22.511 13.042 26.117 10.803 3.606 22.481-2.241 26.082-13.059z" fill="#000"/><path d="M271.757 340.912h-6.264v11.238h6.264v-11.238zm-12.529 0h-6.264v11.238h6.264v-11.238z" fill="#000"/><path d="M266.536 354.241c2.884 0 5.221-.877 5.221-1.96 0-1.082-2.337-1.96-5.221-1.96-2.883 0-5.22.878-5.22 1.96 0 1.083 2.337 1.96 5.22 1.96zm-12.528-.261c2.883 0 5.22-.878 5.22-1.96 0-1.083-2.337-1.96-5.22-1.96-2.883 0-5.22.877-5.22 1.96 0 1.082 2.337 1.96 5.22 1.96z" fill="#000"/><path d="M256.555 298.754c1.841-7.425 9.968-11.794 18.153-9.759 8.184 2.034 13.326 9.703 11.485 17.128-1.841 7.425-7.949 7.449-16.134 5.414-8.184-2.035-15.346-5.359-13.504-12.783z" fill="#EA5243"/><path d="M249.119 319.551c.767-1.617-2.783-4.908-7.928-7.352-5.145-2.443-9.936-3.113-10.702-1.496-.766 1.618 2.783 4.909 7.928 7.353 5.145 2.443 9.936 3.113 10.702 1.495z" fill="#000"/><path d="M259.946 327.235c3.797 0 6.875-3.082 6.875-6.884 0-3.802-3.078-6.884-6.875-6.884-3.796 0-6.874 3.082-6.874 6.884 0 3.802 3.078 6.884 6.874 6.884z" fill="#fff"/><path d="M257.121 320.178a2.292 2.292 0 002.291-2.294 2.292 2.292 0 10-4.583 0 2.293 2.293 0 002.292 2.294z" fill="#3F3D56"/><path d="M259.887 337.6a2.875 2.875 0 002.873-2.876 2.875 2.875 0 00-2.873-2.877 2.875 2.875 0 00-2.872 2.877 2.874 2.874 0 002.872 2.876z" fill="#fff"/><path d="M321.905 354.38H208.911a.478.478 0 01-.478-.48.48.48 0 01.478-.479h112.994a.48.48 0 010 .959z" fill="#3F3D56"/></g><defs><clipPath id="clip0"><path fill="#fff" d="M0 0h302v354H0z"/></clipPath></defs></svg>