<svg width="128" height="139" viewBox="0 0 128 139" fill="none" xmlns="http://www.w3.org/2000/svg"><path d="M59.5 139C26.64 139 0 133.627 0 127s26.64-12 59.5-12 59.5 5.373 59.5 12-26.64 12-59.5 12z" fill="#CFCFCF"/><path d="M59 114c-22.644 0-41-18.356-41-41s18.356-41 41-41 41 18.356 41 41-18.356 41-41 41z" fill="#000"/><path d="M65 105h12v21H65v-21zm-26 0h13v21H39v-21z" fill="#000"/><path d="M67 131c-5.523 0-10-1.567-10-3.5s4.477-3.5 10-3.5 10 1.567 10 3.5-4.477 3.5-10 3.5zm-25-1c-5.523 0-10-1.791-10-4s4.477-4 10-4 10 1.791 10 4-4.477 4-10 4z" fill="#000"/><path d="M57 76c-7.732 0-14-6.268-14-14s6.268-14 14-14 14 6.268 14 14-6.268 14-14 14z" fill="#fff"/><path d="M57.5 67c-2.485 0-4.5-2.239-4.5-5s2.015-5 4.5-5 4.5 2.239 4.5 5-2.015 5-4.5 5z" fill="#000"/><path d="M98.388 34.176c3.34-14.785-7.336-29.725-23.846-33.368C58.032-2.836 41.94 6.195 38.6 20.98c-3.34 14.785 7.602 20.238 24.112 23.882 16.51 3.644 32.337 4.099 35.676-10.686z" fill="#EA5243"/><path d="M20.331 64.226C9.961 59.788 2.683 53.551 4.077 50.295c1.393-3.256 10.93-2.297 21.3 2.142 10.37 4.439 17.648 10.676 16.254 13.931-1.393 3.256-10.93 2.297-21.3-2.142zM96.86 91.632C86.488 87.193 79.211 80.956 80.604 77.7c1.394-3.255 10.93-2.296 21.3 2.142 10.371 4.439 17.648 10.676 16.255 13.932-1.394 3.255-10.93 2.296-21.3-2.142z" fill="#000"/><path d="M34 84.69C34 88.491 44.54 96 56.235 96 67.931 96 79 88.983 79 85.181c0-3.802-11.07-2.95-22.765-2.95S34 80.886 34 84.688z" fill="#fff"/></svg>