<svg width="131" height="138" viewBox="0 0 131 138" fill="none" xmlns="http://www.w3.org/2000/svg"><path d="M65.5 136C32.64 136 6 130.627 6 124s26.64-12 59.5-12 59.5 5.373 59.5 12-26.64 12-59.5 12z" fill="#CFCFCF"/><path d="M91.36 107.539c16.818-16.819 16.818-44.087 0-60.906-16.82-16.82-44.088-16.82-60.907 0-16.819 16.819-16.819 44.087 0 60.906 16.819 16.819 44.088 16.819 60.907 0z" fill="#181818"/><path d="M60.666 81.048c7.938-1.757 12.948-9.615 11.19-17.553-1.756-7.937-9.615-12.947-17.552-11.19-7.937 1.757-12.947 9.616-11.19 17.553 1.757 7.937 9.615 12.947 17.553 11.19z" fill="#fff"/><path d="M52.583 67.666a4.906 4.906 0 10-2.12-9.581 4.906 4.906 0 002.12 9.58z" fill="#181818"/><path d="M59.205 47.97c-17.613-.032-29.978-3.178-29.948-19.136C29.287 12.877 43.588-.033 61.202 0 78.815.033 93.069 12.995 93.04 28.952c-.03 15.958-16.222 19.05-33.835 19.018z" fill="#EA5243"/><path d="M128.408 84.285c-5.052 17.526-19.804 29.795-35.191 40.217a346.609 346.609 0 01-6.448 4.266c-.015.006-.03.02-.044.027a11.43 11.43 0 00-.304.199c-.443.286-.887.573-1.327.855l.241.109s.238.126-.022.02c-.077-.032-.158-.061-.235-.094-8.94-3.605-18.038-7.476-24.888-14.23-7.107-7.014-11.26-18.014-7.412-27.228a17.594 17.594 0 011.905-3.419c.312-.447.648-.874.998-1.294a18.855 18.855 0 0132.386 5.73c1.13-10.526-7.549-19.343-15.901-25.848-8.357-6.502-17.852-13.584-19.467-24.05-.902-5.825 1.123-11.469 4.812-16 .114-.137.228-.274.346-.408a27.518 27.518 0 0117.687-9.49c12.814-1.33 25.259 5.452 34.568 14.36 14.982 14.334 24.039 36.35 18.296 56.278z" fill="#E6E6E6"/><path d="M104.324 61.36a46.772 46.772 0 015.604 12.362 40.58 40.58 0 011.404 11.997 52.037 52.037 0 01-6.816 23.684 74.892 74.892 0 01-11.3 15.099 346.609 346.609 0 01-6.447 4.266c-.015.007-.03.02-.044.027a9.39 9.39 0 00-.304.2l-1.327.855s.479.235.219.129c-.077-.033-.158-.062-.235-.094a41.406 41.406 0 00-13.25-35.651 41.761 41.761 0 00-17.145-9.227 19.1 19.1 0 01.998-1.293 43.304 43.304 0 017.147 2.704 42.423 42.423 0 0119.182 18.494 43.372 43.372 0 014.722 23.801c.368-.333.735-.673 1.092-1.01 6.793-6.333 12.826-13.602 16.91-21.992a48.428 48.428 0 005.07-22.907c-.334-8.654-3.781-16.669-8.773-23.646a101.359 101.359 0 00-19.21-19.799 115.157 115.157 0 00-23.893-14.75.828.828 0 01-.417-1.063.704.704 0 01.346-.409.612.612 0 01.532.023c1.054.485 2.101.977 3.14 1.49A116.469 116.469 0 0185.59 40.522c7.083 6.039 13.75 12.938 18.733 20.839z" fill="#fff"/><path d="M52.027 104.101c11.89-.233 21.47-3.447 21.398-7.18-.073-3.733-9.772-6.57-21.662-6.338-11.89.233-21.47 3.447-21.397 7.18.073 3.733 9.77 6.57 21.661 6.338z" fill="#000"/></svg>