<svg width="129" height="170" viewBox="0 0 129 170" fill="none" xmlns="http://www.w3.org/2000/svg"><path d="M60 169.273c-32.86 0-59.5-4.356-59.5-9.729 0-5.374 26.64-9.73 59.5-9.73 32.861 0 59.5 4.356 59.5 9.73 0 5.373-26.639 9.729-59.5 9.729z" fill="#CFCFCF"/><path d="M29.097 88.447c3.372-1.3 2.75-11.06-1.39-21.802-4.14-10.74-10.23-18.394-13.601-17.094-3.372 1.3-2.75 11.06 1.39 21.8 4.14 10.742 10.23 18.395 13.601 17.096z" fill="#181818"/><path d="M60 143.013c23.119 0 41.86-18.741 41.86-41.86 0-23.118-18.741-41.86-41.86-41.86-23.118 0-41.86 18.742-41.86 41.86 0 23.119 18.742 41.86 41.86 41.86z" fill="#181818"/><path d="M66.705 155.753l12.663-.035-.063-22.69-12.664.036.064 22.689zm-25.327.073l12.664-.035-.063-22.69-12.664.036.063 22.689z" fill="#181818"/><path d="M68.829 159.97c5.828-.016 10.548-1.801 10.542-3.987-.006-2.185-4.736-3.944-10.564-3.928-5.829.017-10.549 1.802-10.543 3.987.007 2.186 4.736 3.945 10.565 3.928zm-25.329-.456c5.828-.016 10.548-1.801 10.541-3.987-.006-2.186-4.735-3.944-10.564-3.928-5.828.017-10.548 1.802-10.542 3.987.006 2.186 4.736 3.944 10.564 3.928z" fill="#181818"/><path d="M59.394 104.187c8.041 0 14.56-6.52 14.56-14.56 0-8.042-6.519-14.56-14.56-14.56s-14.56 6.518-14.56 14.56c0 8.04 6.518 14.56 14.56 14.56z" fill="#fff"/><path d="M59.394 94.48a4.853 4.853 0 100-9.707 4.853 4.853 0 000 9.707z" fill="#181818"/><path d="M100.054 61.76c3.28-15.288-7.379-30.695-23.807-34.413-16.428-3.718-32.404 5.66-35.683 20.948-3.28 15.287 7.616 20.89 24.044 24.61 16.428 3.717 32.167 4.142 35.446-11.145z" fill="#EA5243"/><path d="M109.937 86.8c10.387-4.962 17.544-11.628 15.986-14.889-1.558-3.26-11.24-1.881-21.627 3.08C93.909 79.955 86.752 86.62 88.309 89.88c1.558 3.26 11.241 1.882 21.628-3.08z" fill="#181818"/><path d="M80.02 115.15c.012 4.044-10.218 12.058-21.594 12.09-11.377.032-22.074-11.321-22.085-15.365-.012-4.044 10.668.754 22.044.722 11.376-.033 21.624-1.491 21.636 2.553z" fill="#fff"/><path opacity=".4" d="M67.5 96C94.286 96 116 74.51 116 48S94.286 0 67.5 0 19 21.49 19 48s21.714 48 48.5 48z" fill="#EA5243"/></svg>