<svg width="255" height="207" viewBox="0 0 255 207" fill="none" xmlns="http://www.w3.org/2000/svg"><path d="M240.341 1.927C269.915 50.26 260.106 158.909.561 203.932" stroke="#EA5243" stroke-width="5"/><path d="M112.754 174.985c-22.766 6.889-46.806-5.982-53.695-28.748-6.89-22.766 5.981-46.806 28.747-53.695 22.766-6.89 46.806 5.982 53.695 28.748 6.889 22.766-5.981 46.806-28.747 53.695z" fill="#181818"/><path d="M60.135 176.841l45.311-13.711 3.79 12.523-45.312 13.711-3.79-12.523z" fill="#181818"/><path d="M63.663 189.444c-2.161.654-5.327-3.488-7.071-9.252-1.744-5.763-1.406-10.966.755-11.62 2.162-.654 5.328 3.488 7.072 9.252 1.744 5.763 1.406 10.966-.756 11.62zm4.797-16.166l36.929-11.175 3.789 12.523-36.93 11.175-3.789-12.523z" fill="#181818"/><path d="M71.988 185.879c-2.162.654-5.328-3.488-7.072-9.251-1.744-5.764-1.405-10.966.756-11.62 2.161-.654 5.327 3.488 7.071 9.251 1.744 5.764 1.406 10.966-.755 11.62z" fill="#181818"/><path d="M128.666 83.329c-1.183-15.914-16.38-27.756-33.945-26.451-17.565 1.305-30.846 15.263-29.663 31.177 1.182 15.913 13.75 18.111 31.314 16.806 17.565-1.305 33.476-5.619 32.294-21.532z" fill="#EA5243"/><path d="M67.06 147.369a9.572 9.572 0 1018.84 3.407l.002-.018c.936-5.204-3.088-7.04-8.291-7.975-5.204-.936-9.615-.617-10.551 4.586z" fill="#fff"/><path d="M126.015 185.543c-4.139.172-7.937-10.377-8.484-23.561-.547-13.184 2.365-24.011 6.504-24.183 4.139-.171 7.938 10.377 8.484 23.561.547 13.185-2.365 24.011-6.504 24.183z" fill="#181818"/><path d="M83.101 138.908c7.4-2.239 11.585-10.054 9.345-17.454-2.24-7.401-10.054-11.585-17.455-9.345-7.4 2.239-11.584 10.054-9.345 17.454 2.24 7.401 10.055 11.585 17.455 9.345z" fill="#fff"/><path d="M75.23 131.887c2.379-.72 3.659-3.446 2.859-6.089-.8-2.643-3.376-4.202-5.755-3.482-2.379.72-3.659 3.446-2.86 6.089.8 2.643 3.377 4.202 5.756 3.482z" fill="#181818"/></svg>