<svg width="35" height="35" viewBox="0 0 35 35" fill="none" xmlns="http://www.w3.org/2000/svg"><path d="M26.845 6.055a2.1 2.1 0 100 4.2 2.1 2.1 0 000-4.2zm8.05 4.235a13.282 13.282 0 00-.805-4.252 8.645 8.645 0 00-2.03-3.098A8.226 8.226 0 0028.962.927 12.775 12.775 0 0024.71.105C22.855 0 22.26 0 17.5 0s-5.355 0-7.21.105c-1.454.03-2.892.308-4.252.823A8.365 8.365 0 002.94 2.94 8.225 8.225 0 00.927 6.037a12.775 12.775 0 00-.822 4.253C0 12.145 0 12.74 0 17.5s0 5.355.105 7.21c.03 1.454.308 2.892.823 4.252A8.226 8.226 0 002.94 32.06a8.364 8.364 0 003.097 2.012c1.36.515 2.799.793 4.253.823C12.145 35 12.74 35 17.5 35s5.355 0 7.21-.105a12.775 12.775 0 004.252-.823 8.225 8.225 0 003.098-2.012 8.488 8.488 0 002.03-3.098c.499-1.363.771-2.8.805-4.252 0-1.855.105-2.45.105-7.21s0-5.355-.105-7.21zm-3.15 14.21a9.816 9.816 0 01-.595 3.255 5.355 5.355 0 01-1.313 2.012 5.582 5.582 0 01-2.012 1.313 9.815 9.815 0 01-3.255.595c-1.75.087-2.398.105-7 .105-4.603 0-5.25 0-7-.105a10.027 10.027 0 01-3.395-.525 5.723 5.723 0 01-1.925-1.313 5.25 5.25 0 01-1.295-2.012 9.695 9.695 0 01-.7-3.325c0-1.75-.105-2.398-.105-7s0-5.25.105-7a9.695 9.695 0 01.613-3.325A5.25 5.25 0 015.25 5.25a5.495 5.495 0 011.925-1.4 10.028 10.028 0 013.325-.595c1.75 0 2.398-.105 7-.105s5.25 0 7 .105a9.818 9.818 0 013.255.595 5.355 5.355 0 012.082 1.4 5.354 5.354 0 011.313 1.925c.389 1.066.59 2.19.595 3.325.087 1.75.105 2.398.105 7s-.018 5.25-.105 7zM17.5 8.523a8.978 8.978 0 108.995 8.977A8.96 8.96 0 0017.5 8.523zm0 14.805a5.828 5.828 0 110-11.656 5.828 5.828 0 010 11.655z" fill="#181818"/></svg>