<svg width="424" height="426" viewBox="0 0 424 426" fill="none" xmlns="http://www.w3.org/2000/svg"><path d="M368.444 425.567c27.24 0 49.323-1.68 49.323-3.754 0-2.073-22.083-3.753-49.323-3.753-27.24 0-49.323 1.68-49.323 3.753 0 2.074 22.083 3.754 49.323 3.754zm-240.272 0c27.24 0 49.323-1.68 49.323-3.754 0-2.073-22.083-3.753-49.323-3.753-27.24 0-49.323 1.68-49.323 3.753 0 2.074 22.083 3.754 49.323 3.754z" fill="#A4A4A4"/><path d="M347.08 375.667H26.703a5.068 5.068 0 01-3.568-1.474 5.023 5.023 0 01-1.48-3.553V64.343a5.022 5.022 0 011.48-3.553 5.065 5.065 0 013.568-1.474H347.08a5.063 5.063 0 013.568 1.474 5.017 5.017 0 011.48 3.553V370.64a5.018 5.018 0 01-1.48 3.553 5.067 5.067 0 01-3.568 1.474zM26.703 61.327c-.803 0-1.573.319-2.14.884a3.013 3.013 0 00-.889 2.132V370.64c.001.799.32 1.566.888 2.132a3.04 3.04 0 002.14.884H347.08a3.042 3.042 0 002.141-.884 3.015 3.015 0 00.888-2.132V64.343a3.012 3.012 0 00-.888-2.132 3.04 3.04 0 00-2.141-.884H26.703z" fill="#CCC"/><path d="M56.542 81.912a1.936 1.936 0 00-1.934 1.934v79.928a1.934 1.934 0 001.934 1.933h79.928a1.93 1.93 0 001.366-.567 1.93 1.93 0 00.567-1.366V83.846a1.935 1.935 0 00-1.933-1.934H56.542zm111.821 53.566a2.557 2.557 0 00-1.779.762 2.543 2.543 0 000 3.574c.47.477 1.109.75 1.779.761h120.402a2.561 2.561 0 001.823-.714 2.562 2.562 0 00.78-1.792 2.561 2.561 0 00-.721-1.817 2.56 2.56 0 00-1.798-.774H168.363zm0-23.202a2.547 2.547 0 000 5.097h34.44a2.572 2.572 0 001.822-.714 2.546 2.546 0 00-.762-4.175 2.581 2.581 0 00-.976-.208h-34.524zm0 47.108a2.556 2.556 0 00-1.779.761 2.545 2.545 0 000 3.574c.47.477 1.109.75 1.779.761h120.402a2.552 2.552 0 002.59-2.506 2.548 2.548 0 00-2.59-2.59H168.363zm143.225 92.078H146.119c-3.226 0-5.84-1.858-5.843-4.148v-35.887c.003-2.29 2.617-4.149 5.843-4.149h165.469c3.226 0 5.84 1.859 5.844 4.149v35.886c-.003 2.29-2.618 4.146-5.844 4.149zm-95.082 87.184H51.036c-3.225 0-5.84-1.858-5.843-4.148V298.61c.004-2.29 2.618-4.148 5.843-4.148h165.47c3.225 0 5.84 1.858 5.843 4.148v35.887c-.003 2.29-2.618 4.146-5.843 4.149z" fill="#CCC"/><path d="M171.313 358.416H5.843c-3.225 0-5.84-1.858-5.843-4.148v-35.887c.004-2.29 2.618-4.149 5.843-4.149h165.47c3.225 0 5.84 1.859 5.843 4.149v35.886c-.003 2.29-2.618 4.147-5.843 4.149zM5.843 315.89c-1.935 0-3.504 1.115-3.506 2.489v35.887c0 1.374 1.57 2.487 3.506 2.489h165.47c1.935 0 3.504-1.115 3.506-2.489v-35.885c0-1.374-1.571-2.488-3.506-2.489l-165.47-.002z" fill="#000"/><path d="M209.202 260.102c7.394 0 13.388-5.981 13.388-13.359s-5.994-13.359-13.388-13.359-13.387 5.981-13.387 13.359 5.993 13.359 13.387 13.359zm-179.14 89.292c7.394 0 13.388-5.981 13.388-13.358 0-7.378-5.994-13.359-13.388-13.359s-13.388 5.981-13.388 13.359c0 7.377 5.994 13.358 13.388 13.358z" fill="#EA5243"/><path d="M238.119 237.163a2.559 2.559 0 00-1.778.762 2.543 2.543 0 000 3.574c.47.477 1.108.75 1.778.761h95.741a2.552 2.552 0 002.59-2.506 2.548 2.548 0 00-.716-1.812 2.559 2.559 0 00-1.79-.779h-95.825zm0 14.062a2.559 2.559 0 00-1.778.762 2.543 2.543 0 000 3.574c.47.477 1.108.75 1.778.761h95.741a2.552 2.552 0 002.59-2.506 2.548 2.548 0 00-.716-1.812 2.559 2.559 0 00-1.79-.779h-95.825zM58.98 326.456a2.56 2.56 0 00-1.78.762 2.543 2.543 0 000 3.574c.47.477 1.11.75 1.78.761h95.74a2.552 2.552 0 002.59-2.507 2.547 2.547 0 00-.716-1.811 2.559 2.559 0 00-1.79-.779H58.98zm0 14.062a2.56 2.56 0 00-1.78.762 2.543 2.543 0 000 3.574c.47.477 1.11.75 1.78.761h95.74a2.552 2.552 0 002.59-2.506 2.548 2.548 0 00-.716-1.812 2.559 2.559 0 00-1.79-.779H58.98zm310.854 68.638c16.76 0 30.346-13.557 30.346-30.281 0-16.723-13.586-30.28-30.346-30.28-16.759 0-30.345 13.557-30.345 30.28 0 16.724 13.586 30.281 30.345 30.281z" fill="#000"/><path d="M383.663 402.641h-9.219v16.481h9.219v-16.481zm-18.438 0h-9.219v16.481h9.219v-16.481z" fill="#000"/><path d="M375.98 422.188c4.243 0 7.683-1.287 7.683-2.874 0-1.588-3.44-2.875-7.683-2.875s-7.682 1.287-7.682 2.875c0 1.587 3.439 2.874 7.682 2.874zm-18.438-.383c4.243 0 7.683-1.287 7.683-2.875 0-1.587-3.44-2.874-7.683-2.874-4.242 0-7.682 1.287-7.682 2.874 0 1.588 3.44 2.875 7.682 2.875z" fill="#000"/><path d="M369.066 381.558c5.728 0 10.371-4.633 10.371-10.349 0-5.715-4.643-10.349-10.371-10.349-5.728 0-10.371 4.634-10.371 10.349 0 5.716 4.643 10.349 10.371 10.349z" fill="#fff"/><path d="M369.066 374.659a3.453 3.453 0 003.457-3.45 3.453 3.453 0 00-3.457-3.449 3.453 3.453 0 00-3.457 3.449 3.453 3.453 0 003.457 3.45z" fill="#000"/><path d="M399.271 350.715c2.45-10.95-5.383-22.014-17.495-24.713-12.112-2.698-23.917 3.99-26.368 14.94-2.45 10.95 5.577 14.989 17.69 17.687 12.112 2.699 23.722 3.036 26.173-7.914z" fill="#EA5243"/><path d="M235.901 79.421a30.065 30.065 0 01-3.121 13.387c-.233.479-.48.943-.74 1.407h-52.966a30.226 30.226 0 01-.956-27.75 30.294 30.294 0 018.376-10.619 30.377 30.377 0 0112.17-5.925 30.412 30.412 0 0113.542-.054 30.37 30.37 0 0112.217 5.83 30.283 30.283 0 018.46 10.552 30.224 30.224 0 013.018 13.172z" fill="#000"/><path d="M207.149 86.604c5.728 0 10.371-4.633 10.371-10.349 0-5.715-4.643-10.349-10.371-10.349-5.728 0-10.371 4.634-10.371 10.35 0 5.715 4.643 10.348 10.371 10.348z" fill="#fff"/><path d="M207.149 79.706a3.454 3.454 0 003.457-3.45 3.453 3.453 0 00-3.457-3.45 3.453 3.453 0 00-3.457 3.45 3.454 3.454 0 003.457 3.45z" fill="#000"/><path d="M176.121 51.258c-2.45-10.95 5.383-22.014 17.495-24.713 12.112-2.699 23.917 3.99 26.367 14.94 2.451 10.95-5.576 14.988-17.689 17.687-12.112 2.699-23.722 3.036-26.173-7.914z" fill="#EA5243"/><path d="M249.07 0h-87.372a3.526 3.526 0 00-3.523 3.515V90.7a3.526 3.526 0 003.523 3.515h87.372c.934 0 1.83-.37 2.491-1.03a3.51 3.51 0 001.032-2.485V3.515a3.51 3.51 0 00-1.032-2.485A3.53 3.53 0 00249.07 0zm2.114 90.7a2.115 2.115 0 01-2.114 2.108h-87.372a2.124 2.124 0 01-1.493-.62 2.11 2.11 0 01-.62-1.489V3.515a2.11 2.11 0 01.62-1.49 2.124 2.124 0 011.493-.619h87.372a2.115 2.115 0 012.114 2.11v87.183zm-95.458 267.007c2.992-7.811 3.425-14.903.968-15.84-2.458-.937-6.875 4.635-9.867 12.446-2.992 7.81-3.425 14.902-.968 15.839 2.458.937 6.875-4.635 9.867-12.445z" fill="#000"/><path d="M153.182 383.726c2.685-16.507-8.55-32.061-25.093-34.739-16.543-2.679-32.13 8.531-34.815 25.039-2.684 16.507 8.55 32.061 25.093 34.739 16.543 2.679 32.13-8.531 34.815-25.039z" fill="#000"/><path d="M118.619 402.641H109.4v16.481h9.219v-16.481zm18.438 0h-9.219v16.481h9.219v-16.481z" fill="#000"/><path d="M117.082 422.188c4.243 0 7.683-1.287 7.683-2.874 0-1.588-3.44-2.875-7.683-2.875s-7.682 1.287-7.682 2.875c0 1.587 3.439 2.874 7.682 2.874zm18.438-.383c4.243 0 7.683-1.287 7.683-2.875 0-1.587-3.44-2.874-7.683-2.874s-7.682 1.287-7.682 2.874c0 1.588 3.439 2.875 7.682 2.875z" fill="#000"/><path d="M93.792 350.715c-2.45-10.949 5.382-22.014 17.494-24.713 12.112-2.698 23.918 3.99 26.368 14.94 2.45 10.95-5.577 14.989-17.689 17.687-12.112 2.699-23.723 3.036-26.173-7.914z" fill="#EA5243"/><path d="M102.758 371.314c1.127-2.372-4.097-7.199-11.668-10.783-7.571-3.583-14.623-4.565-15.75-2.193-1.128 2.372 4.096 7.199 11.668 10.782 7.57 3.584 14.623 4.566 15.75 2.194zm276.233-55.207c16.349 0 29.602-13.225 29.602-29.539s-13.253-29.539-29.602-29.539-29.602 13.225-29.602 29.539 13.253 29.539 29.602 29.539z" fill="#000"/><path d="M392.588 309.688l-8.993.041.075 16.078 8.993-.041-.075-16.078zm-17.986.083l-8.993.041.075 16.078 8.993-.041-.075-16.078z" fill="#000"/><path d="M369.732 329.983c3.574-2.081 5.838-4.853 5.056-6.191s-4.315-.735-7.889 1.347c-3.575 2.082-5.839 4.854-5.057 6.191.783 1.338 4.315.735 7.89-1.347zm17.611-.082c3.575-2.082 5.838-4.854 5.056-6.192-.782-1.337-4.314-.734-7.889 1.348-3.575 2.081-5.839 4.853-5.056 6.191.782 1.337 4.314.734 7.889-1.347z" fill="#000"/><path d="M378.207 289.189c5.587 0 10.117-4.52 10.117-10.095 0-5.576-4.53-10.096-10.117-10.096-5.588 0-10.118 4.52-10.118 10.096 0 5.575 4.53 10.095 10.118 10.095z" fill="#fff"/><path d="M374.741 278.175a3.368 3.368 0 003.372-3.365 3.369 3.369 0 00-3.372-3.366 3.369 3.369 0 00-3.372 3.366 3.368 3.368 0 003.372 3.365z" fill="#000"/><path d="M407.578 258.965c2.34-10.693-5.351-21.451-17.178-24.028-11.828-2.578-23.313 4-25.654 14.693-2.34 10.692 5.509 14.596 17.336 17.173 11.828 2.578 23.155 2.854 25.496-7.838z" fill="#EA5243"/><path d="M361.71 277.361c.999-2.359-4.296-6.845-11.826-10.019-7.53-3.175-14.444-3.837-15.442-1.478-.999 2.359 4.295 6.845 11.825 10.019 7.53 3.175 14.444 3.837 15.443 1.478zm60.482 24.481c.998-2.359-4.296-6.844-11.826-10.019s-14.444-3.836-15.443-1.477c-.998 2.359 4.296 6.844 11.826 10.019s14.444 3.836 15.443 1.477z" fill="#000"/><path d="M384.973 299.44a6.713 6.713 0 01-1.947 4.773 6.73 6.73 0 01-4.76 2 6.757 6.757 0 01-4.782-1.946 6.727 6.727 0 01-2-4.752v-.013c-.018-3.717 2.998-4.501 6.723-4.518 3.725-.017 6.749.739 6.766 4.456z" fill="#fff"/><path d="M354.636 269.007H189.167c-3.226 0-5.84-1.859-5.844-4.149v-35.887c.004-2.29 2.618-4.148 5.844-4.148h165.469c3.226 0 5.84 1.858 5.844 4.148v35.887c-.003 2.29-2.618 4.146-5.844 4.149zm-165.469-42.526c-1.936 0-3.504 1.115-3.506 2.489v35.886c0 1.374 1.57 2.488 3.506 2.489h165.469c1.936 0 3.504-1.115 3.506-2.489v-35.885c0-1.374-1.57-2.488-3.506-2.489l-165.469-.001z" fill="#000"/></svg>