<svg width="172" height="133" viewBox="0 0 172 133" fill="none" xmlns="http://www.w3.org/2000/svg"><path d="M102.585 81.028c-5.231 0-9.472-4.232-9.472-9.453 0-5.22 4.24-9.452 9.472-9.452 5.231 0 9.472 4.232 9.472 9.453 0 5.22-4.241 9.452-9.472 9.452z" fill="#EA5243"/><path d="M136.208 132.887c-19.273 0-34.898-1.189-34.898-2.656s15.625-2.656 34.898-2.656c19.274 0 34.898 1.189 34.898 2.656s-15.624 2.656-34.898 2.656z" fill="#CCC"/><path d="M82.125 64.798a1.81 1.81 0 011.777 1.803 1.801 1.801 0 01-1.777 1.803H14.383a1.81 1.81 0 01-1.832-1.774 1.801 1.801 0 011.832-1.832h67.742zm0 9.949a1.81 1.81 0 011.777 1.803 1.801 1.801 0 01-1.777 1.803H14.383a1.81 1.81 0 01-1.832-1.773 1.801 1.801 0 011.832-1.833h67.742zm57.086 45.964c11.568 0 20.945-9.357 20.945-20.9s-9.377-20.9-20.945-20.9c-11.567 0-20.945 9.357-20.945 20.9s9.378 20.9 20.945 20.9z" fill="#000"/><path d="M148.832 116.169l-6.363.03.053 11.376 6.363-.03-.053-11.376zm-12.726.059l-6.363.03.053 11.376 6.363-.03-.053-11.376z" fill="#000"/><path d="M130.91 129.78c2.926-.066 5.277-1.008 5.25-2.104-.027-1.096-2.421-1.931-5.347-1.865-2.926.066-5.277 1.009-5.25 2.105.027 1.096 2.421 1.931 5.347 1.864zm12.725-.115c2.926-.066 5.276-1.008 5.249-2.105-.027-1.096-2.42-1.93-5.347-1.864-2.926.066-5.276 1.008-5.249 2.105.027 1.096 2.421 1.931 5.347 1.864z" fill="#000"/><path d="M138.656 101.665c3.954 0 7.159-3.198 7.159-7.143s-3.205-7.143-7.159-7.143c-3.953 0-7.158 3.198-7.158 7.143s3.205 7.143 7.158 7.143z" fill="#fff"/><path d="M136.204 93.872a2.383 2.383 0 002.386-2.38 2.383 2.383 0 00-2.386-2.382 2.383 2.383 0 00-2.386 2.381 2.383 2.383 0 002.386 2.381z" fill="#000"/><path d="M159.438 80.28c1.656-7.565-3.786-15.177-12.155-17-8.368-1.824-16.495 2.83-18.151 10.396-1.656 7.565 3.898 10.327 12.266 12.15 8.369 1.825 16.384 2.02 18.04-5.545z" fill="#EA5243"/><path d="M126.984 93.296c.707-1.669-3.039-4.842-8.367-7.089-5.328-2.246-10.22-2.714-10.927-1.045-.706 1.67 3.04 4.843 8.368 7.09 5.327 2.246 10.219 2.713 10.926 1.044zm42.794 17.322c.706-1.669-3.04-4.843-8.368-7.089-5.327-2.246-10.219-2.714-10.926-1.045-.707 1.669 3.04 4.843 8.367 7.089 5.328 2.246 10.22 2.714 10.927 1.045z" fill="#000"/><path d="M143.444 108.918a4.763 4.763 0 01-4.745 4.793 4.765 4.765 0 01-3.384-1.377 4.759 4.759 0 01-1.416-3.362v-.009c-.012-2.63 2.122-3.185 4.758-3.197 2.635-.012 4.775.522 4.787 3.152z" fill="#fff"/><path d="M121.979 87.386H4.902C2.619 87.386.77 86.07.767 84.45V59.059c.003-1.62 1.852-2.935 4.135-2.935h117.077c2.282 0 4.132 1.314 4.135 2.935V84.45c-.002 1.62-1.853 2.934-4.135 2.936zM4.902 57.296c-1.37 0-2.48.79-2.481 1.762v25.391c0 .972 1.111 1.76 2.48 1.761H121.98c1.37 0 2.479-.789 2.481-1.76V59.058c0-.972-1.111-1.76-2.481-1.761H4.902zm142.336 2.085c11.858 0 21.471-9.592 21.471-21.424 0-11.833-9.613-21.425-21.471-21.425s-21.471 9.592-21.471 21.425c0 11.832 9.613 21.424 21.471 21.424z" fill="#000"/><path d="M157.023 54.772H150.5v11.662h6.523V54.772zm-13.046 0h-6.523v11.662h6.523V54.772z" fill="#000"/><path d="M152.621 69.984c2.792-1.105 4.72-2.847 4.306-3.891-.413-1.045-3.011-.996-5.802.108-2.792 1.104-4.72 2.846-4.307 3.89.413 1.045 3.011.997 5.803-.107zm-13.002-.109c2.792-1.104 4.72-2.846 4.307-3.89-.413-1.045-3.011-.997-5.803.107-2.792 1.105-4.72 2.847-4.306 3.891.413 1.045 3.011.996 5.802-.108z" fill="#000"/><path d="M146.695 39.855c4.052 0 7.338-3.278 7.338-7.322 0-4.044-3.286-7.323-7.338-7.323-4.053 0-7.339 3.279-7.339 7.323 0 4.044 3.286 7.322 7.339 7.322z" fill="#fff"/><path d="M146.695 34.974a2.443 2.443 0 002.446-2.44 2.443 2.443 0 00-2.446-2.442 2.443 2.443 0 00-2.446 2.441 2.443 2.443 0 002.446 2.44z" fill="#000"/><path d="M168.066 18.032c1.734-7.747-3.808-15.576-12.378-17.485-8.57-1.91-16.923 2.823-18.657 10.57-1.733 7.748 3.946 10.605 12.516 12.515 8.57 1.91 16.785 2.148 18.519-5.6z" fill="#EA5243"/></svg>