<svg width="79" height="28" viewBox="0 0 79 28" fill="none" xmlns="http://www.w3.org/2000/svg"><path d="M15.5.017h4.928v26.84H15.5V24.59c-1.48 1.861-3.554 2.8-6.226 2.8-2.548 0-4.73-.977-6.546-2.934C.902 22.5 0 20.11 0 17.267c0-2.841.91-5.232 2.727-7.19C4.55 8.122 6.729 7.145 9.273 7.145c2.672 0 4.746.93 6.226 2.8V.017zm-9.087 21.14c.99 1.01 2.257 1.514 3.783 1.514 1.525 0 2.789-.505 3.794-1.514 1.006-1.01 1.51-2.304 1.51-3.89 0-1.585-.504-2.879-1.51-3.888-1.005-1.01-2.273-1.515-3.794-1.515-1.522 0-2.79.505-3.783 1.514-.993 1.01-1.492 2.304-1.492 3.89.004 1.585.503 2.879 1.492 3.889zM32.57 7.14c2.24 0 4.093.655 5.573 1.974 1.48 1.318 2.215 3.163 2.215 5.541v12.193H35.55V25.2c-1.193 1.46-2.93 2.187-5.195 2.187-1.808 0-3.325-.53-4.56-1.594-1.234-1.056-1.853-2.55-1.853-4.465 0-1.916.615-3.401 1.853-4.444 1.235-1.052 2.752-1.57 4.56-1.57 2.161 0 3.89.56 5.195 1.69v-2.036c0-2.145-.989-3.221-2.98-3.221-.89 0-1.604.221-2.136.672-.536.45-.802 1.043-.802 1.782h-4.81c0-2.17.749-3.89 2.233-5.154C28.539 7.774 30.38 7.14 32.57 7.14zm-.533 16.566c1.069 0 1.925-.22 2.56-.672.636-.45.952-1.018.952-1.702 0-.743-.316-1.327-.935-1.744-.62-.418-1.484-.63-2.577-.63-1.047 0-1.833.22-2.365.655-.536.434-.802 1.01-.802 1.727 0 .718.266 1.294.802 1.728.524.417 1.318.638 2.365.638zm16.68-10.466c0 .593.345 1.053 1.051 1.382.699.33 1.555.593 2.577.789a23.52 23.52 0 013.035.788c1.005.33 1.853.923 2.56 1.761.698.843 1.051 1.957 1.051 3.339 0 1.94-.731 3.442-2.194 4.506-1.463 1.056-3.3 1.594-5.52 1.594-2.24 0-4.086-.567-5.532-1.702-1.455-1.135-2.178-2.78-2.178-4.924h4.81c0 1.506.967 2.266 2.9 2.266 1.854 0 2.79-.576 2.79-1.728 0-.513-.254-.922-.761-1.247-.512-.318-1.148-.543-1.912-.672a19.105 19.105 0 01-2.461-.593 19.997 19.997 0 01-2.46-.922c-.761-.346-1.401-.914-1.913-1.703-.51-.788-.76-1.76-.76-2.912 0-1.92.723-3.41 2.153-4.482 1.438-1.072 3.213-1.61 5.328-1.61 2.058 0 3.795.575 5.212 1.727 1.414 1.152 2.124 2.787 2.124 4.907h-4.809c0-.718-.236-1.268-.706-1.665-.47-.396-1.077-.592-1.816-.592-1.713-.034-2.57.542-2.57 1.694zm24.098-6.1c1.808 0 3.284.663 4.448 1.994C78.418 10.461 79 12.277 79 14.58v12.272h-4.93V14.96c0-1.052-.282-1.849-.839-2.4-.557-.55-1.288-.822-2.178-.822-1.047 0-1.879.326-2.498.977-.62.655-.935 1.656-.935 3.008v11.121h-4.93V.013h4.93V9.63c1.093-1.652 2.83-2.491 5.195-2.491zM24.398 4.749V0h34.277v4.749H24.398z" fill="#181818"/></svg>