<svg width="109" height="336" viewBox="0 0 109 336" fill="none" xmlns="http://www.w3.org/2000/svg"><path d="M56.606 101.199c20.014 0 36.24-16.225 36.24-36.24 0-20.013-16.226-36.238-36.24-36.238-20.014 0-36.239 16.225-36.239 36.239 0 20.014 16.225 36.239 36.24 36.239z" fill="#181818"/><path d="M46.123 91.965L35.29 90.002l-3.514 19.41 10.834 1.961 3.513-19.41zm21.667 3.922l-10.834-1.961-3.513 19.409 10.833 1.962 3.514-19.41z" fill="#181818"/><path d="M71.619 126.618c1.548-1.829-1.15-6.658-6.024-10.786-4.875-4.129-10.083-5.994-11.63-4.166-1.55 1.828 1.148 6.657 6.023 10.786s10.082 5.994 11.63 4.166zm-23.096-4.911c1.448-1.71-1.075-6.226-5.634-10.087-4.56-3.861-9.429-5.605-10.877-3.896-1.448 1.71 1.074 6.226 5.634 10.087 4.559 3.862 9.429 5.606 10.877 3.896z" fill="#181818"/><path d="M59.144 68.481c6.84 0 12.385-5.545 12.385-12.385S65.984 43.71 59.144 43.71s-12.386 5.545-12.386 12.386c0 6.84 5.545 12.385 12.386 12.385z" fill="#fff"/><path d="M64.233 55.784a4.129 4.129 0 100-8.257 4.129 4.129 0 000 8.257z" fill="#181818"/><path d="M28.019 25.536C27.474 12.12 39.037.756 53.845.154c14.809-.601 27.255 9.787 27.8 23.203.545 13.417-9.749 16.465-24.557 17.066-14.809.602-28.524-1.471-29.069-14.887z" fill="#EA5243"/><path d="M91.339 63.902c9.754-2.236 17.092-6.53 16.39-9.593-.702-3.062-9.178-3.732-18.932-1.496-9.754 2.236-17.093 6.53-16.39 9.593.701 3.062 9.178 3.732 18.932 1.496zm-71.136 11.83c9.754-2.236 17.092-6.531 16.39-9.593-.701-3.062-9.178-3.732-18.932-1.496-9.754 2.235-17.092 6.53-16.39 9.592.702 3.063 9.178 3.732 18.932 1.497z" fill="#181818"/><path d="M46.653 79.241a8.257 8.257 0 1016.25 2.942c.812-4.488-2.657-6.076-7.145-6.888-4.487-.812-8.293-.541-9.105 3.946z" fill="#fff"/><path d="M64.684 335.754c24.475 0 44.316-3.019 44.316-6.744 0-3.725-19.841-6.744-44.316-6.744s-44.317 3.019-44.317 6.744c0 3.725 19.841 6.744 44.317 6.744z" fill="#A4A4A4"/></svg>