<svg width="138" height="104" viewBox="0 0 138 104" fill="none" xmlns="http://www.w3.org/2000/svg"><path d="M69 103.754c38.108 0 69-1.681 69-3.754s-30.892-3.754-69-3.754c-38.108 0-69 1.68-69 3.754 0 2.073 30.892 3.754 69 3.754z" fill="#A4A4A4"/><path d="M7.757 62.983l3.3 11.939 21.391-5.913-3.3-11.939-21.39 5.913z" fill="#181818"/><path d="M9.231 77.033c2.06-.57 2.5-5.486.981-10.98-1.519-5.495-4.42-9.488-6.481-8.918-2.06.57-2.5 5.485-.98 10.98 1.518 5.495 4.42 9.488 6.48 8.918zM75.273 21.92c1.513-11.156-.1-20.586-3.603-21.06-3.503-.475-7.568 8.185-9.08 19.342-1.513 11.157.1 20.586 3.603 21.06 3.503.476 7.568-8.184 9.08-19.341z" fill="#181818"/><path d="M65 100c22.644 0 41-18.356 41-41 0-22.643-18.356-41-41-41S24 36.357 24 59c0 22.644 18.356 41 41 41z" fill="#181818"/><path d="M7.757 55.757l3.3 11.94 21.391-5.914-3.3-11.939-21.39 5.913z" fill="#181818"/><path d="M9.231 69.807c2.06-.57 2.5-5.485.981-10.98-1.519-5.495-4.42-9.487-6.481-8.918-2.06.57-2.5 5.486-.98 10.98 1.518 5.495 4.42 9.488 6.48 8.918z" fill="#181818"/><path d="M76 50c7.732 0 14-6.268 14-14s-6.268-14-14-14-14 6.268-14 14 6.268 14 14 14z" fill="#fff"/><path d="M80 34c2.761 0 5-2.015 5-4.5S82.761 25 80 25s-5 2.015-5 4.5 2.24 4.5 5 4.5z" fill="#181818"/><path d="M111.943 86.973c15.208-.75 26.854-14.777 26.014-31.33-.84-16.552-13.849-29.362-29.056-28.611-15.207.75-17.594 12.522-16.754 29.075.84 16.552 4.589 31.617 19.796 30.866z" fill="#EA5243"/><path d="M48.321 41.97a9.588 9.588 0 01-6.957-2.233 9.466 9.466 0 01-1.09-13.39 9.57 9.57 0 016.506-3.317c5.259-.423 6.693 3.729 7.119 8.959.425 5.23-.319 9.557-5.578 9.98z" fill="#fff"/><path d="M59.97 31.61c1.512-11.158-.101-20.587-3.604-21.062-3.502-.475-7.568 8.185-9.08 19.342-1.512 11.157.101 20.587 3.604 21.061 3.502.475 7.568-8.185 9.08-19.342z" fill="#181818"/></svg>