<svg width="48" height="62" viewBox="0 0 48 62" fill="none" xmlns="http://www.w3.org/2000/svg"><path d="M24.477 61.3c12.457 0 22.555-1.41 22.555-3.15S36.934 55 24.477 55C12.02 55 1.922 56.41 1.922 58.15S12.02 61.3 24.477 61.3z" fill="#CCC"/><path d="M22.201 42.827c-8.48 0-15.355-6.875-15.355-15.356 0-8.48 6.874-15.356 15.355-15.356 8.48 0 15.356 6.875 15.356 15.356 0 8.48-6.875 15.356-15.356 15.356z" fill="#181818"/><path d="M26.643 38.913l4.59-.83 1.49 8.224-4.591.831-1.489-8.224zm-9.181 1.663l4.59-.831 1.49 8.224-4.59.831-1.49-8.224z" fill="#181818"/><path d="M15.84 53.597c-.656-.774.486-2.82 2.552-4.57 2.066-1.75 4.273-2.54 4.929-1.765.656.775-.487 2.82-2.553 4.57-2.066 1.75-4.272 2.54-4.928 1.765zm9.786-2.08c-.613-.725.456-2.639 2.387-4.275 1.932-1.636 3.996-2.375 4.61-1.65.613.724-.456 2.638-2.388 4.274-1.932 1.636-3.995 2.375-4.609 1.65z" fill="#181818"/><path d="M21.126 28.963a5.248 5.248 0 110-10.496 5.248 5.248 0 010 10.496z" fill="#fff"/><path d="M18.97 23.583a1.75 1.75 0 110-3.5 1.75 1.75 0 010 3.5z" fill="#181818"/><path d="M34.315 10.765C34.545 5.081 29.646.265 23.37.011c-6.275-.255-11.549 4.147-11.78 9.831-.23 5.685 4.131 6.977 10.406 7.232 6.275.255 12.087-.624 12.318-6.309z" fill="#EA5243"/><path d="M7.484 27.022C3.35 26.075.24 24.255.538 22.958c.298-1.298 3.89-1.582 8.023-.634 4.133.947 7.242 2.767 6.945 4.064-.297 1.298-3.89 1.582-8.022.634zm30.142 5.013c-4.133-.947-7.242-2.767-6.945-4.065.297-1.297 3.89-1.581 8.022-.634 4.133.948 7.243 2.768 6.946 4.065-.298 1.298-3.89 1.582-8.023.634z" fill="#181818"/><path d="M26.419 33.522a3.499 3.499 0 01-6.886 1.247c-.344-1.902 1.126-2.575 3.027-2.919 1.902-.344 3.514-.23 3.859 1.672z" fill="#fff"/></svg>